<svg width="55" height="60" viewBox="0 0 55 60" fill="none" xmlns="http://www.w3.org/2000/svg">
<path d="M54.9877 58.5911C25.9014 58.5911 26.001 58.6236 0.525058 58.6236C-0.491222 58.6236 0.223648 55.1692 0.548473 54.2487C1.71715 50.9372 2.83191 47.6084 3.98386 44.2914C4.26605 43.4789 4.40656 42.6638 4.40558 41.8032C4.39115 29.1725 4.39297 16.5417 4.39087 3.91086C4.39041 1.12606 5.52857 0.00990571 8.4223 0.00962282C21.2528 0.0082968 34.0835 0.0373596 46.9139 3.21755e-05C49.2073 -0.00664212 51.0803 1.02408 51.0565 3.98887C50.9649 15.4038 51.1041 26.8208 50.9582 38.2348C50.9122 41.8393 51.4588 45.2304 52.8058 48.5684C53.6357 50.6248 54.2647 52.7549 55 54.8468M46.2312 24.6172C46.1941 22.4827 46.1778 20.3476 46.106 18.2142C46.0873 17.6585 46.4105 16.7568 45.3858 16.7682C44.3329 16.78 44.7367 17.6952 44.7346 18.227C44.7017 26.3633 44.6987 34.4998 44.7015 42.6362C44.7017 43.3553 44.5665 43.8457 43.643 43.8443C37.7475 43.8356 31.8519 43.8463 25.9563 43.8617C25.184 43.8637 25.046 43.5244 25.2182 42.8781C25.3981 42.2031 25.6167 41.5119 25.6223 40.8264C25.6297 39.9179 26.057 39.7239 26.9023 39.731C30.1774 39.7583 33.4529 39.7403 36.7282 39.7319C38.5498 39.7272 40.755 37.6517 40.7578 35.9377C40.7647 31.6657 40.7671 27.3937 40.7643 23.1217C40.7629 21.1243 38.6222 19.0968 36.5017 19.0939C31.2226 19.0867 25.94 19.1983 20.6661 19.0402C18.4087 18.9726 16.6039 19.4419 15.1623 21.0947C15.1382 21.1224 15.104 21.1426 15.0728 21.1642C14.6168 21.4788 14.5251 21.9041 14.5525 22.4254C14.7597 26.3629 14.6234 30.3039 14.6592 34.2434C14.664 34.7788 14.5596 35.2459 14.1014 35.627C11.8962 37.4614 11.5689 39.7946 12.1785 42.3697C12.2776 42.7884 12.5707 43.1859 12.3616 43.6437C10.8951 44.008 10.6525 43.8396 10.6516 42.4286C10.6466 34.4002 10.6455 26.3718 10.6413 18.3434C10.6411 17.9755 10.6408 17.6064 10.6108 17.2401C10.582 16.8897 10.3448 16.7299 9.98708 16.7198C9.60878 16.7091 9.27037 16.7869 9.2167 17.208C9.17035 17.5718 9.17441 17.9426 9.17436 18.3103C9.17344 26.0073 9.15401 33.7043 9.19325 41.4011C9.20144 43.0072 8.979 44.5201 8.3921 46.0371C7.35164 48.7264 6.45434 51.4664 5.49676 54.185C5.08697 55.3484 5.15656 55.452 6.43405 55.4521C20.5758 55.4532 34.7176 55.4526 48.8594 55.4428C49.2576 55.4425 49.7069 55.5854 50.1577 55.1451C49.5265 53.3886 48.9488 51.5609 48.2171 49.7913C46.7314 46.1984 45.8586 42.5632 46.07 38.6288C46.3166 34.038 46.0119 29.426 46.2312 24.6172ZM14.7703 13.0698C24.7807 13.0702 34.7911 13.0577 44.8014 13.0894C45.8998 13.0929 46.2766 12.7733 46.27 11.7049C46.259 9.90374 46.0065 8.10796 46.1815 6.3019C46.3176 4.89721 46.0959 4.70282 44.6163 4.70313C36.4925 4.7049 28.3687 4.70834 20.2449 4.70971C16.9338 4.71038 13.6225 4.72209 10.3117 4.69484C9.48029 4.68799 9.14245 4.95325 9.15957 5.78137C9.20289 7.87797 9.19934 9.97639 9.16026 12.0732C9.14546 12.866 9.50246 13.103 10.2656 13.0869C11.6895 13.0569 13.1145 13.0729 14.7703 13.0698Z" fill="#FFE5D0"/>
<path d="M13.5466 49.3141C13.956 47.8488 14.7059 47.258 16.1126 47.2005C16.5528 47.5282 16.1056 48.1625 16.5932 48.4828C17.3708 47.3559 17.047 45.1297 16.0152 44.4211C14.1852 43.1644 13.4237 40.9749 14.1124 38.9497C14.759 37.0482 16.6486 35.7799 18.7807 35.8163C20.9649 35.8536 22.915 37.221 23.4794 39.1109C24.0889 41.1516 23.2585 43.3077 21.3254 44.4721C20.7205 44.8365 20.4715 45.2471 20.5146 45.9044C20.5709 46.7627 20.4255 47.6365 20.6447 48.5551C21.4143 48.2898 21.0489 47.5592 21.4676 47.2472C22.6617 47.3122 23.7597 48.015 23.8744 48.8985C24.0127 49.964 23.3343 50.6408 22.417 51.057C20.2068 52.0597 17.9118 52.2377 15.5926 51.4409C14.5877 51.0956 13.7272 50.5372 13.5466 49.3141ZM17.041 40.2016C17.7282 40.102 17.9414 39.4667 18.3816 39.0911C18.621 38.8869 18.5749 38.5459 18.3421 38.301C18.1027 38.0492 17.7966 37.8635 17.4337 37.9756C16.8957 38.1416 16.5183 38.5146 16.3786 39.0337C16.2513 39.5066 16.2417 39.9912 17.041 40.2016Z" fill="#FFE5D0"/>
<path d="M28.072 49.2078C28.7177 46.8564 32.8834 46.2955 34.7306 48.0867C35.8306 49.1534 35.6467 50.5604 34.2999 51.3365C32.777 52.214 31.1678 52.2988 29.5743 51.5392C28.6405 51.094 27.9576 50.4126 28.072 49.2078Z" fill="#FFE5D0"/>
<path d="M38.5006 51.582C37.5191 51.0571 36.9103 50.3688 37.0549 49.329C37.2006 48.2816 37.9157 47.635 38.9409 47.3097C40.3521 46.8619 41.7501 46.8645 43.0384 47.6425C43.8089 48.1077 44.4111 48.7582 44.3045 49.7148C44.2015 50.64 43.5646 51.2186 42.7149 51.588C41.3458 52.1831 39.965 52.1721 38.5006 51.582Z" fill="#FFE5D0"/>
</svg>
